<svg width="128" height="128" viewBox="0 0 128 128" fill="none" xmlns="http://www.w3.org/2000/svg">
    <g clip-path="url(#clip0_2018_37)">
        <rect width="128" height="128" rx="21.3333" fill="white" />
        <g clip-path="url(#clip1_2018_37)">
            <path
                d="M13.3333 90.3467H60.3086L50.4889 114.667H13.3333V90.3467ZM114.667 90.3467V114.667H57.6787L67.4984 90.3467H114.667ZM13.3333 51.84H86.2451V76.16H13.3333V51.84ZM114.667 51.84V76.16H93.0006V51.84H114.667ZM13.3333 13.3333H48.0279L29.1124 37.6533H13.3333V13.3333ZM114.667 13.3333V37.6533H37.3638L56.2794 13.3333H114.667Z"
                fill="#007E66" />
            <path
                d="M58.8669 54.2195V109.103C58.8669 112.892 61.9384 115.963 65.7273 115.963H106.89C110.679 115.963 113.75 112.892 113.75 109.103V69.1121C113.75 67.2659 113.006 65.4976 111.686 64.2069L96.4548 49.3142C95.1729 48.0608 93.4516 47.359 91.6586 47.359H65.7273C61.9384 47.359 58.8669 50.4306 58.8669 54.2195Z"
                fill="white" stroke="#007E66" stroke-width="3.43021" stroke-linecap="round"
                stroke-linejoin="round" />
            <path d="M76.0179 74.8007H96.5991" stroke="#007E66" stroke-width="3.43021"
                stroke-linecap="round" stroke-linejoin="round" />
            <path d="M76.0179 88.5216H86.3085" stroke="#007E66" stroke-width="3.43021"
                stroke-linecap="round" stroke-linejoin="round" />
            <path d="M93.1689 47.359V61.0799C93.1689 64.8688 96.2404 67.9403 100.029 67.9403H113.75"
                stroke="#007E66" stroke-width="3.43021" stroke-linejoin="round" />
            <path
                d="M73.6216 105.572H69.773V103.145H73.6216C74.2163 103.145 74.7004 103.048 75.0739 102.854C75.4473 102.654 75.7205 102.377 75.8934 102.024C76.0663 101.672 76.1528 101.274 76.1528 100.831C76.1528 100.382 76.0663 99.9633 75.8934 99.5761C75.7205 99.1888 75.4473 98.8776 75.0739 98.6424C74.7004 98.4073 74.2163 98.2897 73.6216 98.2897H70.8518V110.956H67.7397V95.8519H73.6216C74.8042 95.8519 75.8173 96.0663 76.6611 96.4951C77.5117 96.9169 78.1618 97.5013 78.6113 98.2482C79.0608 98.9951 79.2856 99.8492 79.2856 100.811C79.2856 101.786 79.0608 102.629 78.6113 103.342C78.1618 104.054 77.5117 104.604 76.6611 104.991C75.8173 105.378 74.8042 105.572 73.6216 105.572ZM86.0699 110.956H82.7815L82.8022 108.528H86.0699C86.886 108.528 87.5741 108.345 88.1343 107.979C88.6945 107.605 89.1163 107.062 89.3999 106.35C89.6903 105.638 89.8356 104.777 89.8356 103.767V103.03C89.8356 102.256 89.7526 101.575 89.5866 100.987C89.4275 100.399 89.1889 99.9046 88.8708 99.5034C88.5527 99.1023 88.1619 98.8015 87.6986 98.6009C87.2352 98.3935 86.7027 98.2897 86.1011 98.2897H82.7193V95.8519H86.1011C87.1108 95.8519 88.034 96.0248 88.8708 96.3706C89.7145 96.7095 90.4441 97.197 91.0596 97.8333C91.6751 98.4695 92.1489 99.2303 92.4808 100.115C92.8197 100.994 92.9891 101.972 92.9891 103.051V103.767C92.9891 104.839 92.8197 105.818 92.4808 106.703C92.1489 107.588 91.6751 108.349 91.0596 108.985C90.4511 109.614 89.7214 110.102 88.8708 110.448C88.0271 110.786 87.0935 110.956 86.0699 110.956ZM84.545 95.8519V110.956H81.4329V95.8519H84.545ZM98.3627 95.8519V110.956H95.2506V95.8519H98.3627ZM104.379 102.304V104.732H97.512V102.304H104.379ZM105.106 95.8519V98.2897H97.512V95.8519H105.106Z"
                fill="#FF0000" />
        </g>
    </g>
    <defs>
        <clipPath id="clip0_2018_37">
            <rect width="128" height="128" rx="21.3333" fill="white" />
        </clipPath>
        <clipPath id="clip1_2018_37">
            <rect width="128" height="128" fill="white" />
        </clipPath>
    </defs>
</svg>
